<svg width="300" height="300" viewBox="0 0 300 300" fill="none" xmlns="http://www.w3.org/2000/svg">
<g clip-path="url(#clip0_2_5)">
<path d="M71.7633 151.545C66.9079 149.884 65.8849 147.396 64.3521 142.781C62.1123 136.039 63.0674 129.278 67.4695 123.646C70.6793 119.558 75.3759 116.905 80.5345 116.268C86.5049 115.546 90.7749 117.55 95.2919 121.118C102.809 118.405 108.681 123.623 107.875 131.228C107.355 136.136 104.663 139.114 100.992 142.035C100.968 145.949 101.136 149.954 101.077 153.878C100.98 160.431 101.986 164.946 94.4268 166.999C94.3585 169.999 94.4479 173.345 94.4903 176.364C98.9232 176.452 103.387 176.278 107.821 176.371C112.144 176.463 115.691 177.151 119.264 179.684C125.15 183.856 128.273 189.627 129.509 196.62C130.343 190.316 131.61 184.078 132.411 177.747C132.772 174.89 132.662 170.989 136.551 170.958C141.606 170.917 146.68 170.927 151.734 170.908L185.435 170.877L208.974 170.87C212.911 170.87 217.034 170.814 220.971 170.981C222.186 171.032 222.635 171.664 223.358 172.535C223.536 175.238 222.846 178.574 222.474 181.283L220.532 195.052C219.743 200.907 218.884 206.752 217.954 212.587C217.62 214.738 217.079 218.978 216.538 220.886C216.028 223.54 215.686 226.441 215.295 229.132L213.701 239.776C213.449 241.566 213.521 243.555 213.073 245.293C212.931 245.844 212.61 246.587 212.092 246.893C211.185 247.429 192.402 247.137 189.67 247.137C190.77 251.446 191.791 255.775 192.733 260.121C193.281 262.555 194.044 265.6 194.45 268.025C192.723 267.78 189.88 267.865 188.053 267.867L177.681 267.882L168.132 267.875C166.629 267.872 164.009 267.796 162.562 267.944C157.247 268.031 151.736 267.941 146.409 267.931L116.933 267.924L0 268.151V267.334C7.94581 267.413 16.0194 267.328 23.9792 267.33C21.6232 265.804 19.0424 263.546 19.1783 260.427C19.3631 256.186 20.4548 251.79 21.2665 247.603L25.969 223.728L29.9271 202.845C30.6425 199.095 31.3635 194.43 32.5409 190.834C34.9641 183.433 42.7222 177.446 50.3924 176.575C53.3505 176.239 56.6484 176.349 59.6827 176.363L71.7753 176.38C71.7237 168.102 71.7199 159.823 71.7633 151.545Z" fill="#191818"/>
<path d="M140.034 171.842C156.585 171.666 173.432 171.854 190.012 171.829L209.225 171.805C212.842 171.789 216.461 171.72 220.076 171.784C221.517 171.81 221.616 171.872 222.509 173.001C222.563 175.184 221.74 179.996 221.385 182.38L219.019 198.329L214.431 229.202C213.913 232.846 213.377 236.487 212.821 240.125C212.544 241.935 212.222 244.383 211.81 246.136C204.58 246.162 196.536 246.372 189.379 246.187C188.629 243.226 185.125 225.72 183.985 224.504C182.229 223.93 163.156 224.16 160.35 224.479C160.384 227.108 161.302 230.613 161.889 233.248C162.84 237.583 163.857 241.903 164.94 246.207C160.292 246.272 155.588 246.35 150.939 246.207C149.236 246.154 147.57 245.492 145.685 245.493C141.882 245.496 138.081 245.49 134.277 245.535C132.651 245.554 130.418 245.948 128.956 245.92C127.044 245.897 125.067 245.932 123.149 245.942C123.147 243.956 123.933 239.71 124.277 237.578C125.009 233.122 125.713 228.661 126.387 224.196C128.828 208.149 131.213 192.077 133.679 176.033C133.767 175.46 134.166 173.042 134.501 172.724C135.667 171.619 138.514 171.826 140.034 171.842Z" fill="#2C2E42"/>
<path d="M123.149 245.942C123.147 243.956 123.933 239.71 124.277 237.578C125.009 233.122 125.713 228.661 126.387 224.196C128.828 208.149 131.213 192.077 133.679 176.033C133.767 175.46 134.166 173.042 134.501 172.724C135.667 171.619 138.514 171.826 140.034 171.842C139.901 174.026 139.36 176.924 139.003 179.116C138.403 182.71 137.837 186.309 137.304 189.912L132.106 224.816C131.041 231.785 129.729 238.934 128.956 245.92C127.044 245.897 125.067 245.932 123.149 245.942Z" fill="#FEFEFE"/>
<path d="M176.972 202.308C183.035 202.254 182.917 212.721 175.658 213.826C171.155 214.009 170.212 209.06 172.113 205.827C173.36 203.706 174.732 202.968 176.972 202.308Z" fill="#FEFEFE"/>
<path d="M35.9168 186.559C36.1702 185.464 38.5362 183.21 39.4307 182.395C44.3669 177.895 50.6271 176.85 57.1351 177.253L57.2886 177.268C59.2931 177.162 63.5121 177.157 65.5395 177.268C65.1196 179.258 64.0148 183.497 63.8552 185.328C63.3053 187.265 62.7583 190.046 62.6763 192.047C68.1993 190.134 73.6107 187.569 79.1467 185.666L79.4868 185.556C80.5169 185.657 82.7279 188.601 83.7211 189.519C83.6537 192.236 83.6271 194.954 83.6408 197.672C83.6367 199.121 83.5732 201.329 83.6895 202.746L83.6499 203.042L83.7401 214.706C83.7504 216.248 83.862 218.912 83.763 220.32L83.7604 220.469C83.884 228.629 83.5893 237.155 83.8011 245.222C82.8683 245.224 80.197 245.299 79.4273 245.066L79.2082 245.068C77.6385 245.321 73.5305 245.229 71.7243 245.228C66.9231 245.258 62.122 245.204 57.3229 245.064L57.0979 245.063C55.5964 245.17 53.4023 245.135 51.8511 245.158C52.1783 243.249 52.8856 239.492 53.6098 237.759L53.6209 237.591C53.7879 236.321 54.2827 234.434 54.5499 233.133C55.2428 229.758 55.9805 226.643 56.9789 223.343L57.0015 222.705C56.9675 222.199 56.9994 221.521 56.7642 221.133C55.4728 225.47 54.3703 229.86 53.4598 234.293C53.3944 234.599 52.7411 237.561 52.7315 237.765C52.1004 239.902 51.1421 243.74 50.9101 245.906C52.4112 245.88 55.7493 245.754 57.1688 245.949L57.2789 245.962C60.1292 245.725 65.0399 246.066 68.1401 246.079C73.2694 246.1 79.4687 245.496 84.4093 245.909C74.5166 251.245 75.4658 256.842 75.7239 267.048C62.5225 267.032 48.9932 267.587 35.8465 267.156C33.1292 266.607 29.0982 267.735 26.1269 266.992C18.4378 265.068 20.0146 258.559 21.0518 252.906C21.7407 249.23 22.4658 245.561 23.2273 241.9L27.454 220.387C28.559 214.843 29.6147 209.289 30.6208 203.727C31.3172 199.895 32.7879 189.219 35.6933 186.981L35.9168 186.559Z" fill="#FEFEFE"/>
<path d="M57.2789 245.962C60.1292 245.725 65.0399 246.066 68.1401 246.079C73.2694 246.1 79.4687 245.496 84.4093 245.909C74.5166 251.245 75.4658 256.842 75.7239 267.048C62.5225 267.032 48.9932 267.587 35.8465 267.156C36.2139 266.509 36.0478 256.227 36.0428 254.66C42.6123 254.838 50.4823 254.779 57.0313 254.632L57.0152 261.182C57.0032 263.151 56.8576 264.897 57.2042 266.84L57.3035 266.89C57.5933 264.383 57.4087 257.576 57.399 254.685L69.4562 254.725C71.0106 254.721 74.3479 254.78 75.7424 254.539C74.6153 254.084 59.6812 254.305 57.4143 254.307C57.431 252.375 57.5575 247.625 57.2789 245.962Z" fill="#2C2E42"/>
<path d="M27.454 220.387C28.0547 220.81 34.551 220.611 35.7425 220.602L35.751 237.585C33.6671 237.58 26.3732 237.441 24.7639 237.745C25.9833 237.997 34.0878 237.904 35.7513 237.887L35.7434 254.297C32.7015 254.267 29.6596 254.253 26.6177 254.255C25.117 254.255 22.5094 254.208 21.0989 254.414C22.195 254.767 33.8218 254.667 35.7407 254.626C35.7316 256.206 35.574 266.121 35.8465 267.156C33.1292 266.607 29.0982 267.735 26.1269 266.992C18.4378 265.068 20.0146 258.559 21.0518 252.906C21.7407 249.23 22.4658 245.561 23.2273 241.9L27.454 220.387Z" fill="#2C2E42"/>
<path d="M35.9168 186.559C36.1702 185.464 38.5362 183.21 39.4307 182.395C44.3669 177.895 50.627 176.85 57.1351 177.253C56.8854 179.004 57.012 183.269 57.0284 185.129L44.6265 185.084C43.1877 185.08 39.2572 185.006 38.0376 185.254C39.4556 185.542 43.205 185.464 44.8857 185.468C48.9495 185.486 53.0136 185.478 57.0773 185.445L57.0876 202.731L36.0375 202.728L36.065 192.065C36.0671 190.93 36.1356 187.479 35.9168 186.559Z" fill="#2C2E42"/>
<path d="M57.4019 185.458C59.0358 185.48 62.3279 185.576 63.8552 185.328C63.3053 187.265 62.7583 190.046 62.6763 192.047C68.1993 190.134 73.6107 187.569 79.1467 185.666L79.1147 202.734L57.4166 202.714L57.4019 185.458Z" fill="#2C2E42"/>
<path d="M36.0419 220.61C43.1323 220.638 50.008 220.746 57.1061 220.618C57.1137 221.469 57.1005 221.853 57.0015 222.705C56.9675 222.2 56.9994 221.521 56.7642 221.133C55.4728 225.47 54.3703 229.86 53.4598 234.293C53.3944 234.599 52.7411 237.561 52.7315 237.765C52.0169 237.355 38.1217 237.563 36.0894 237.569L36.0419 220.61Z" fill="#2C2E42"/>
<path d="M36.075 237.892L46.9043 237.915C48.2476 237.917 51.5654 237.998 52.7314 237.765C52.1004 239.902 51.1421 243.74 50.9101 245.906C52.4112 245.88 55.7493 245.754 57.1687 245.949C56.8819 248.214 56.9883 251.911 56.9944 254.307L36.0691 254.297C36.1046 248.828 36.1066 243.36 36.075 237.892Z" fill="#2C2E42"/>
<path d="M27.454 220.387C28.559 214.843 29.6147 209.289 30.6208 203.727C31.3172 199.895 32.7879 189.219 35.6933 186.981C35.7861 192.214 35.6786 197.486 35.7164 202.726C34.2331 202.728 32.8664 202.721 31.3828 202.833C31.5735 203.027 33.0899 203.058 33.4251 203.06C34.1971 203.062 34.969 203.057 35.741 203.045L35.7422 220.279C34.1352 220.254 28.6854 220.072 27.454 220.387Z" fill="#2C2E42"/>
<path d="M57.3926 237.887C64.5914 237.887 71.9168 237.959 79.1048 237.879C79.0945 239.067 78.9905 244.271 79.2082 245.068C77.6385 245.321 73.5305 245.229 71.7243 245.228C66.9231 245.258 62.122 245.204 57.3228 245.064C57.5358 243.771 57.4113 239.336 57.3926 237.887Z" fill="#2C2E42"/>
<path d="M79.534 220.597C80.5638 220.611 82.8384 220.698 83.7603 220.469C83.884 228.629 83.5892 237.155 83.8011 245.222C82.8683 245.224 80.197 245.299 79.4273 245.066C79.6392 244.327 79.5395 239.039 79.5299 237.894C80.4114 237.91 82.2577 237.985 83.0616 237.694C81.8862 237.534 80.7161 237.565 79.531 237.565L79.534 220.597Z" fill="#2C2E42"/>
<path d="M79.5255 203.064C80.9004 203.094 82.2756 203.086 83.6499 203.042L83.7401 214.706C83.7504 216.248 83.862 218.912 83.763 220.32C82.36 220.194 80.9476 220.222 79.5384 220.224L79.5255 203.064Z" fill="#2C2E42"/>
<path d="M79.4868 185.556C80.5169 185.657 82.7279 188.601 83.7211 189.519C83.6537 192.236 83.627 194.954 83.6408 197.672C83.6367 199.121 83.5731 201.329 83.6895 202.746C82.3541 202.706 80.8805 202.731 79.5334 202.725L79.5314 191.831C79.534 189.936 79.6093 187.41 79.4868 185.556Z" fill="#2C2E42"/>
<path d="M57.2886 177.268C59.2931 177.162 63.5121 177.157 65.5395 177.268C65.1196 179.258 64.0148 183.497 63.8552 185.328C62.9402 184.86 58.6503 185.055 57.4266 185.071C57.4427 183.532 57.573 178.464 57.2886 177.268Z" fill="#2C2E42"/>
<path d="M53.6098 237.759C54.4737 237.967 56.076 237.889 57.0231 237.875C57.0085 239.184 56.8986 244.133 57.0979 245.063C55.5964 245.17 53.4023 245.135 51.8511 245.158C52.1783 243.249 52.8855 239.492 53.6098 237.759Z" fill="#2C2E42"/>
<path d="M53.6209 237.591C53.7879 236.321 54.2827 234.434 54.5499 233.133C55.2428 229.758 55.9805 226.643 56.9789 223.343C57.1137 227.831 57.2262 233.108 57.0436 237.581C55.9764 237.578 54.6691 237.539 53.6209 237.591Z" fill="#2C2E42"/>
<path d="M57.4175 203.047L79.1159 203.044L79.1229 214.602C79.125 215.924 79.2105 219.149 79.0562 220.281C72.0176 220.083 64.4933 220.252 57.4146 220.247L57.4175 203.047Z" fill="#2C2E42"/>
<path d="M57.4231 220.6L79.1109 220.58L79.1086 237.576C72.0387 237.432 64.5261 237.57 57.411 237.554L57.4231 220.6Z" fill="#2C2E42"/>
<path d="M36.0393 203.049L57.1037 203.035L57.0475 220.251C50.0889 220.088 43.0257 220.264 36.0513 220.283L36.0393 203.049Z" fill="#2C2E42"/>
<path d="M99.5391 176.981C101.977 176.944 104.601 177.066 107.007 176.971C113.386 177.459 117.901 178.4 122.437 183.453C122.894 183.962 123.413 184.655 123.719 185.26C127.53 188.084 129.333 198.399 128.729 202.913C127.807 203.101 124.881 203.043 123.761 203.042L114.804 203.036L113.982 203.013C113.607 217.194 114.185 231.948 113.897 246.254C111.67 245.26 109.634 245.004 107.227 245.046L106.891 245.076C99.4482 245.048 92.027 245.267 84.5344 245.225L84.4843 203.042L84.4708 202.752C84.5856 201.277 84.5241 199.097 84.5203 197.572L84.5309 189.003C85.3386 187.755 86.1322 186.759 87.0615 185.604C88.9233 186.501 102.33 192.479 103.326 191.669C103.401 190.452 102.314 186.514 101.82 185.339C101.778 184.817 101.271 183.199 101.098 182.591C100.56 180.727 100.04 178.857 99.5391 176.981Z" fill="#2C2E42"/>
<path d="M123.719 185.26C127.53 188.084 129.333 198.399 128.729 202.912C128.078 202.55 109.292 202.711 107.217 202.715C107.242 196.961 107.235 191.207 107.195 185.453C109.077 185.46 122.626 185.702 123.719 185.26Z" fill="#2C2E42"/>
<path d="M101.82 185.339C102.938 185.56 105.573 185.458 106.819 185.439L106.83 202.733C99.7063 202.73 91.5032 202.523 84.4708 202.752C84.5856 201.277 84.5241 199.097 84.5203 197.572L84.5309 189.003C85.3386 187.755 86.1322 186.759 87.0615 185.604C88.9233 186.501 102.33 192.479 103.326 191.669C103.401 190.452 102.314 186.514 101.82 185.339Z" fill="#2C2E42"/>
<path d="M107.21 203.039C109.467 203.06 111.725 203.051 113.982 203.013C113.607 217.194 114.185 231.948 113.897 246.254C111.67 245.26 109.634 245.004 107.227 245.046C107.263 242.692 107.221 240.253 107.21 237.892C109.109 237.915 111.193 238.013 113.083 237.785C113.478 237.738 112.876 237.724 113.442 237.757L113.449 237.704C111.562 237.532 109.141 237.574 107.204 237.56C107.303 231.982 107.229 226.193 107.213 220.605C109.128 220.615 111.266 220.694 113.179 220.49C113.585 220.447 113.1 220.422 113.509 220.455C112.604 220.194 108.437 220.257 107.223 220.256L107.21 203.039Z" fill="#2C2E42"/>
<path d="M99.5391 176.981C101.977 176.944 104.601 177.066 107.007 176.971C113.386 177.459 117.901 178.4 122.437 183.453C122.894 183.962 123.413 184.655 123.719 185.26C122.626 185.702 109.077 185.46 107.196 185.453C107.235 191.207 107.242 196.961 107.217 202.715C109.292 202.711 128.078 202.55 128.729 202.913C127.807 203.101 124.881 203.043 123.761 203.042L114.804 203.036L113.982 203.013C111.725 203.051 109.467 203.06 107.21 203.039L107.223 220.256C108.437 220.257 112.604 220.194 113.509 220.455C113.1 220.422 113.585 220.447 113.179 220.49C111.266 220.694 109.128 220.615 107.213 220.605C107.229 226.193 107.303 231.982 107.204 237.56C109.141 237.574 111.562 237.532 113.449 237.704L113.442 237.757C112.876 237.724 113.478 237.738 113.083 237.785C111.193 238.013 109.109 237.915 107.21 237.892C107.221 240.253 107.263 242.692 107.227 245.046L106.891 245.076C106.792 242.827 106.861 240.167 106.866 237.887C104.614 237.937 86.494 238.074 86.0728 237.721C88.5896 237.522 91.6019 237.597 94.1686 237.594L106.897 237.577L106.874 220.579C102.101 220.657 97.2457 220.581 92.463 220.617C91.2009 220.626 85.9172 220.712 84.9328 220.47C85.662 220.085 104.472 220.3 106.87 220.309L106.87 203.021C99.6 203.133 91.7496 203.107 84.4843 203.042L84.4708 202.752C91.5032 202.523 99.7063 202.73 106.83 202.734L106.819 185.439C105.573 185.458 102.938 185.56 101.82 185.339C101.778 184.817 101.271 183.199 101.098 182.591C100.56 180.727 100.04 178.857 99.5391 176.981Z" fill="#FEFEFE"/>
<path d="M107.007 176.971C113.386 177.459 117.901 178.4 122.437 183.453C122.894 183.962 123.413 184.655 123.719 185.26C122.377 184.976 118.847 185.063 117.346 185.07L107.183 185.113C107.206 183.43 107.374 178.278 107.007 176.971Z" fill="#2C2E42"/>
<path d="M99.5391 176.981C101.977 176.944 104.601 177.066 107.007 176.971C106.581 177.858 106.78 183.788 106.788 185.144C105.797 185.131 102.55 184.975 101.82 185.339C101.778 184.817 101.271 183.199 101.098 182.591C100.56 180.727 100.04 178.857 99.5391 176.981Z" fill="#2C2E42"/>
<path d="M81.9604 133.039C87.774 132.897 94.2281 132.937 100.043 133.035C100.029 136.847 100.041 140.658 100.08 144.469C100.168 150.015 100.533 156.516 99.6996 161.833C98.0605 166.367 93.6785 166.282 90.1471 166.19C84.8186 166.052 82.5671 166.46 81.0524 160.561C80.9774 160.269 80.8251 160.203 80.5711 160.118C80.3408 160.347 80.2371 160.466 80.279 160.834C81.1093 168.112 88.2065 167.154 93.5505 167.082C93.6 170.13 93.5903 173.178 93.5221 176.225C92.3959 177.439 91.2346 178.953 90.1852 180.257C87.9185 182.908 85.7487 185.64 83.6804 188.449C80.0953 184.367 76.5885 180.192 72.7456 176.362C72.5558 173.787 72.6645 169.861 72.6642 167.174L72.6583 150.542C71.5983 150.393 70.5785 150.036 69.6568 149.492C66.3003 147.525 65.1243 143.771 67.2847 140.43C67.761 139.694 69.0337 138.274 69.9583 138.21C73.0415 137.998 74.7867 142.153 76.8703 143.834C77.2031 144.103 77.4108 144.076 77.7516 144.022C78.7682 143.142 81.0595 135.153 81.8827 133.218L81.9604 133.039Z" fill="#FEFEFE"/>
<path d="M93.3305 139.547C94.2009 140.222 96.3006 149.333 95.9358 150.212C95.3259 149.847 95.1973 149.449 95.0062 148.705C94.3125 146 93.5391 143.197 93.0513 140.452C92.981 140.057 93.155 139.872 93.3305 139.547Z" fill="#191818"/>
<path d="M94.5489 156.279C94.9324 156.466 94.8351 156.442 95.1521 156.779C95.1082 157.117 95.1823 157.075 94.9066 157.268C92.8424 158.706 90.842 158.865 88.5079 158.571C88.3766 158.473 88.2111 158.273 88.0925 158.144L88.1095 157.845C88.6392 157.486 91.1555 157.876 91.9913 157.94C92.8169 157.524 93.7717 156.819 94.5489 156.279Z" fill="#191818"/>
<path d="M161.665 225.077C168.114 224.879 176.97 224.938 183.452 225.139C184.054 227.107 184.615 229.71 185.099 231.734L187.827 243.235C189.369 249.525 190.843 255.831 192.248 262.153C192.466 263.147 193.465 266.327 193.266 267.079L192.957 267.166L170.849 267.088C168.323 254.416 164.695 241.835 161.948 229.194C161.761 228.331 161.043 225.958 161.3 225.173L161.665 225.077Z" fill="#FEFEFE"/>
<path d="M89.6191 246.17C94.8797 245.963 102.263 245.529 106.655 248.42C111.648 251.708 113.674 255.029 115.041 260.672C113.219 260.702 111.361 260.692 109.535 260.7C108.962 259.087 105.987 251.767 103.949 251.986C103.758 252.311 103.714 252.469 103.992 252.821C106.133 255.532 107.57 257.262 108.402 260.71L101.794 260.692C101.07 258.874 100.612 257.875 99.5798 256.216C98.9264 255.296 96.4201 251.675 95.1372 252.254C95.1319 253.046 95.9347 253.47 96.5461 254.069C98.6836 256.164 99.6677 257.931 100.658 260.697C96.1916 260.73 88.7968 260.465 84.5959 260.931C84.2654 262.526 84.3671 265.332 84.3759 267.039L76.6154 267.018C76.5472 266.249 76.5032 265.477 76.4836 264.705C76.2413 254.749 77.6054 246.352 89.6191 246.17Z" fill="#FEFEFE"/>
<path d="M135.551 246.304C137.224 246.225 139.13 246.456 140.762 246.333C151.235 245.548 158.247 249.803 160.576 260.708L155.681 260.711C154.754 257.55 152.905 254.433 150.38 252.284C149.935 251.906 148.849 251.273 148.421 251.945C148.572 252.447 151.733 255.096 152.532 256.314C153.771 258.202 153.974 258.354 154.667 260.633L147.644 260.619C146.863 258.672 145.642 256.313 144.455 254.607C143.828 253.787 142.289 251.755 141.173 252.015C141.081 252.791 143.065 254.241 143.633 255.099C144.875 256.979 145.679 258.523 146.501 260.603C144.164 260.621 141.826 260.619 139.489 260.597C138.907 259.306 135.591 252.625 133.729 253.616C133.722 254.142 134.841 255.228 135.246 255.69C136.594 257.23 137.56 258.689 138.359 260.572L123.541 260.612C123.51 260.314 123.489 260.016 123.477 259.716C123.272 254.627 125.593 249.967 130.176 247.482C132.026 246.479 133.483 246.371 135.551 246.304Z" fill="#FEFEFE"/>
<path d="M114.871 220.323C116.343 220.295 125.195 220.107 125.971 220.489C125.578 223.645 125.097 226.79 124.53 229.919C124.144 232.158 123.499 235.53 123.469 237.761C122.945 239.901 122.675 242.217 122.229 244.376C121.541 247.707 127.029 246.826 129.07 246.793C126.085 249.096 123.483 252.46 122.638 256.283C122.401 257.354 122.693 259.224 122.445 260.469C122.047 260.659 121.937 260.608 121.495 260.581C120.024 259.041 122.623 252.197 114.791 246.599C114.65 243.514 114.797 240.026 114.807 236.902L114.846 220.605L114.871 220.323Z" fill="#2C2E42"/>
<path d="M114.871 220.323C116.343 220.295 125.195 220.107 125.971 220.489C124.918 220.716 116.525 220.61 114.846 220.605L114.871 220.323Z" fill="#FEFEFE"/>
<path d="M115.392 237.68C116.59 237.576 122.623 237.36 123.469 237.761C122.506 237.952 115.959 238.072 115.392 237.68Z" fill="#FEFEFE"/>
<path d="M114.804 203.036L123.761 203.042C124.881 203.043 127.807 203.101 128.729 202.912C127.892 207.895 127.28 212.933 126.381 217.911C126.253 218.62 126.016 219.789 125.971 220.489C125.195 220.107 116.343 220.295 114.871 220.323C114.753 218.754 114.819 216.198 114.82 214.567C114.843 210.723 114.838 206.88 114.804 203.036Z" fill="#2C2E42"/>
<path d="M115.264 261.558C119.046 261.354 123.857 261.476 127.708 261.473L150.685 261.468C150.702 262.482 150.7 266.225 150.405 267.029C138.548 267.042 127.065 267.262 115.196 267.041L115.264 261.558Z" fill="#2C2E42"/>
<path d="M93.3682 261.696L114.234 261.602C114.247 263.411 114.287 265.239 114.178 267.043L106.128 267.031L85.3731 267.03C85.3389 265.276 85.3471 263.521 85.3972 261.767C87.9032 261.646 90.8311 261.705 93.3682 261.696Z" fill="#FEFEFE"/>
<path d="M66.2801 177.246C68.2462 177.244 70.3617 177.207 72.3149 177.269C73.7159 178.736 75.1061 180.214 76.4851 181.702C77.2313 182.496 78.4415 183.665 79.0313 184.512C78.7705 184.947 77.9666 185.384 77.4633 185.404C77.2096 185.451 76.7845 185.51 76.5642 185.604C75.6691 186.324 65.444 190.2 63.6425 190.898C63.8763 189.398 64.2794 186.686 64.7476 185.324L64.754 185.162C65.1557 182.738 66.034 179.485 66.2801 177.246Z" fill="#2C2E42"/>
<path d="M64.7476 185.324C66.2514 185.756 73.991 185.221 76.5642 185.604C75.6691 186.324 65.444 190.2 63.6425 190.898C63.8763 189.398 64.2794 186.686 64.7476 185.324Z" fill="#2C2E42"/>
<path d="M64.754 185.162C66.2493 185.127 77.0358 184.978 77.4439 185.322L77.4633 185.404C77.2096 185.451 76.7845 185.51 76.5642 185.604C73.991 185.221 66.2514 185.756 64.7476 185.324L64.754 185.162Z" fill="#FEFEFE"/>
<path d="M152.396 247.176C155.911 246.947 161.489 247.13 165.156 247.141C166.325 250.94 167.662 256.673 168.413 260.63L161.568 260.696C160.236 253.66 158.031 251.036 152.396 247.176Z" fill="#FEFEFE"/>
<path d="M93.8203 177.255L98.6344 177.197C99.3038 179.528 100.209 183.087 101.022 185.275C101.428 187.168 102.004 189.192 102.548 191.052C98.7164 189.542 94.8709 188.101 91.1109 186.419C90.5268 186.158 89.7044 185.712 89.1363 185.5L88.4871 185.389C88.0758 185.319 87.7192 185.312 87.4093 185.052C89.62 182.473 91.6351 179.806 93.8203 177.255Z" fill="#2C2E42"/>
<path d="M101.022 185.276C101.428 187.168 102.004 189.192 102.548 191.052C98.7164 189.542 94.8709 188.101 91.1109 186.42C90.5267 186.158 89.7044 185.712 89.1363 185.501C90.7166 185.474 100.337 185.608 101.022 185.276Z" fill="#2C2E42"/>
<path d="M88.4871 185.389C89.2081 185.007 100.035 185.047 101.022 185.275C100.337 185.608 90.7166 185.474 89.1363 185.5L88.4871 185.389Z" fill="#FEFEFE"/>
<path d="M151.598 261.596L168.656 261.618C169.13 263.225 169.579 265.369 169.972 267.038L151.448 267.015L151.598 261.596Z" fill="#FEFEFE"/>
<path d="M103.84 245.96C104.994 245.893 106.169 245.933 107.32 245.917C116.476 245.789 120.295 252.148 120.134 260.706L115.924 260.723C115.777 259.44 115.48 258.18 115.037 256.967C113.074 251.574 108.888 248.287 103.84 245.96Z" fill="#FEFEFE"/>
<path d="M225.593 186.439L262.61 186.485L262.647 198.58L262.646 243.974C262.659 251.386 262.44 260.041 262.795 267.339L263.046 268.093C258.61 268.348 252.1 268.158 247.508 268.173L215.33 268.217C206.104 268.22 196.76 267.959 187.619 268.003L172.213 268.041C169.22 268.044 165.507 268.12 162.562 267.944C164.009 267.796 166.629 267.872 168.132 267.875L177.681 267.882L188.053 267.867C189.88 267.865 192.723 267.78 194.45 268.024C194.044 265.6 193.281 262.555 192.733 260.12C191.791 255.775 190.77 251.446 189.67 247.137C192.402 247.137 211.185 247.429 212.092 246.893C212.61 246.587 212.931 245.844 213.073 245.293C213.521 243.555 213.449 241.566 213.701 239.776L215.295 229.132C215.686 226.441 216.028 223.54 216.538 220.886L225.996 220.904C225.71 209.418 225.576 197.928 225.593 186.439Z" fill="#2C2E42"/>
<path d="M243.747 200.901C246.41 200.696 248.729 202.7 248.913 205.364C249.096 208.029 247.074 210.332 244.408 210.494C241.773 210.655 239.501 208.66 239.319 206.026C239.138 203.392 241.114 201.104 243.747 200.901Z" fill="#FEFEFE"/>
<path d="M243.253 224.888C245.857 224.393 248.367 226.108 248.852 228.714C249.338 231.319 247.614 233.823 245.007 234.299C242.413 234.772 239.925 233.059 239.442 230.467C238.959 227.875 240.663 225.381 243.253 224.888Z" fill="#FEFEFE"/>
<path d="M243.304 249.397C244.984 249.117 246.685 249.765 247.753 251.092C248.821 252.419 249.091 254.219 248.459 255.801C247.827 257.383 246.392 258.502 244.703 258.727C242.15 259.069 239.794 257.299 239.412 254.751C239.03 252.203 240.762 249.819 243.304 249.397Z" fill="#FEFEFE"/>
<path d="M207.284 250.102C209.764 249.692 212.109 251.364 212.53 253.842C212.95 256.321 211.288 258.673 208.812 259.104C206.32 259.537 203.95 257.863 203.527 255.37C203.104 252.876 204.789 250.514 207.284 250.102Z" fill="#FEFEFE"/>
<path d="M262.646 198.58C267.782 198.614 273.183 198.719 278.297 198.585L278.321 246.281L278.281 259.347C278.267 261.81 278.168 264.938 278.321 267.34C273.452 267.53 267.729 267.374 262.795 267.339C262.44 260.041 262.659 251.386 262.646 243.974L262.646 198.58Z" fill="#8F96A9"/>
<path d="M155.888 146.291L155.987 84.4462L155.946 66.5054C155.932 63.2303 155.851 59.7931 156.006 56.5365C156.076 55.0415 156.214 53.8989 157.233 52.8219C158.909 51.0512 160.535 50.6856 162.855 50.6736C167.805 50.6484 172.766 50.6645 177.711 50.6683L204.163 50.6302L218.687 50.6522C221.673 50.6499 225.03 50.5397 227.996 50.8708C230.126 51.1087 232.432 53.5561 232.659 55.7405C233 59.0188 232.868 62.4732 232.86 65.8022L232.852 85.1223C234.775 85.1071 243.567 84.8229 244.795 85.5805C245.295 86.7501 245.078 91.4739 245.07 93.0255L259.779 93.0155C260.149 94.7358 260.413 96.8733 260.706 98.6566C261.293 102.177 261.899 105.695 262.525 109.208C264.75 121.513 267.119 133.949 268.834 146.328C270.031 146.295 272.485 146.148 273.518 146.721L273.443 146.912C272.108 147.467 267.047 147.23 265.329 147.228L246.882 147.209L168.708 147.159C165.87 147.167 145.296 147.496 144.36 146.964L144.345 146.693C145.235 146.057 154.094 146.275 155.888 146.291Z" fill="#191818"/>
<path d="M222.649 86.027C229.784 86.0071 236.92 86.0238 244.055 86.0774L244.043 93.0275L241.127 93.0996C241.832 97.1578 242.583 101.208 243.379 105.249C243.802 107.45 244.286 109.717 244.579 111.938C244.717 112.991 244.608 114.001 244.647 115.018C244.414 125.139 244.651 136.081 244.617 146.301C237.368 146.154 229.772 146.279 222.504 146.311L222.649 86.027Z" fill="#8F96A9"/>
<path d="M227.759 98.5444C227.981 98.6206 228.134 98.6643 228.304 98.8354C228.87 99.4072 228.59 137.094 228.468 140.063C228.076 140 228.103 140.01 227.81 139.742C227.563 138.522 227.616 133.798 227.613 132.29L227.624 117.13L227.623 104.933C227.624 103.421 227.541 99.8602 227.759 98.5444Z" fill="#191818"/>
<path d="M245.07 93.0255L259.779 93.0155C260.149 94.7358 260.413 96.8733 260.706 98.6566C261.293 102.177 261.899 105.695 262.525 109.208C264.75 121.513 267.119 133.949 268.834 146.328C262.761 146.476 257.075 146.374 251.002 146.295C248.723 135.081 247.259 123.864 244.876 112.56C244.822 113.382 244.746 114.201 244.647 115.018C244.608 114.001 244.717 112.991 244.579 111.938C244.286 109.717 243.802 107.45 243.379 105.249C242.583 101.208 241.832 97.1578 241.127 93.0996L244.043 93.0275L245.07 93.0255Z" fill="#2C2E42"/>
<path d="M255.534 98.7864C255.753 98.8556 256.157 98.9241 256.201 99.1849C257.421 106.329 258.601 113.629 259.472 120.824C259.571 121.632 259.631 122.417 259.389 123.025C258.717 122.574 258.333 119.834 258.332 119.111C258.325 115.844 254.832 100.788 255.534 98.7864Z" fill="#191818"/>
<path d="M224.404 51.4846C224.611 51.4755 224.819 51.4687 225.026 51.4641C228.424 51.3908 231.403 52.4558 231.82 56.3282C232.165 59.5263 232.006 62.9112 232.003 66.1406L231.996 85.1174L221.652 85.1218C221.481 91.8858 221.632 99.2809 221.632 106.091L221.631 146.338L164.319 146.244L156.763 146.27L156.805 85.5724L156.756 66.8572C156.744 63.1652 156.662 59.4451 156.923 55.7684C157.07 53.9622 158.426 52.3523 160.196 51.9644C162.917 51.3682 165.788 51.5235 168.575 51.5188L180.244 51.5139C194.624 51.5256 210.068 51.8631 224.404 51.4846Z" fill="#FEFEFE"/>
<path d="M175.388 113.013C178.18 112.879 181.383 112.937 184.203 112.934L199.628 112.962C201.16 112.968 211.59 112.704 211.979 113.492C211.186 114.088 209.532 113.957 208.538 113.955L185.603 113.857C183.625 113.85 172.483 114.018 171.875 113.522C172.676 112.948 174.404 113.025 175.388 113.013Z" fill="#8F96A9"/>
<path d="M171.955 127.806L172.282 127.8C180.096 127.722 188.121 127.842 195.977 127.81L205.54 127.771C206.573 127.768 211.705 127.568 212.305 128.151L212.284 128.569C210.054 128.728 206.485 128.615 204.136 128.613L188.783 128.596L177.757 128.607C176.675 128.612 172.111 128.887 171.541 128.218C171.688 127.884 171.591 128.04 171.955 127.806Z" fill="#8F96A9"/>
<path d="M171.383 98.0578C174.09 97.8401 177.966 97.9421 180.775 97.9429L197.686 97.9784L206.58 97.957C208.132 97.9465 210.092 97.8838 211.668 98.0387C212.069 98.0783 212.159 98.3525 212.369 98.6689C210.951 98.8459 205.469 98.7243 203.733 98.7211L185.702 98.6982C181.588 98.7014 176.309 98.8049 172.129 98.7058C171.736 98.6965 171.588 98.3572 171.383 98.0578Z" fill="#8F96A9"/>
<path d="M192.378 68.4815C195.534 68.4492 198.705 68.3924 201.861 68.432C202.53 68.4404 203.304 68.3613 203.501 69.073L203.3 69.3091C202.518 69.5763 194.798 69.4295 193.433 69.4251C190.332 69.4172 185.323 69.6267 182.382 69.3375L182.15 68.9991C183.09 68.2691 185.115 68.5257 186.292 68.5228L192.378 68.4815Z" fill="#8F96A9"/>
<path d="M182.183 79.4147C184.512 79.3591 202.463 79.1004 203.291 79.6626C203.466 79.7812 203.415 80.0247 203.431 80.2169C201.703 80.3748 183.436 80.4729 182.678 80.2339C182.326 80.1225 182.295 79.7267 182.183 79.4147Z" fill="#8F96A9"/>
<path d="M245.427 121.121C245.82 121.602 250.126 145.052 249.987 146.286L245.434 146.266C245.466 137.893 245.331 129.476 245.427 121.121Z" fill="#FEFEFE"/>
<path d="M68.2324 33.7652C69.9961 33.7362 71.7044 33.7172 73.4663 33.8317C73.6605 35.0968 74.1123 36.7488 74.4223 38.0209C75.1919 38.3654 75.9861 38.7551 76.7508 39.1181C78.15 38.5485 79.8431 37.6447 81.2191 36.956C82.7868 38.2963 84.3395 40.1552 85.7021 41.7226C85.0321 43.1927 84.4597 44.3218 83.6982 45.738C84.2704 46.3869 84.3527 46.5955 84.6032 47.4217C86.0684 47.9103 87.4084 48.5036 88.9594 48.999C89.0561 51.3879 89.0092 53.9083 88.9998 56.3101C87.7726 56.618 85.6195 57.0589 84.5578 57.5074C84.1661 58.2229 83.6906 58.9491 83.2561 59.6437C84.1342 60.9105 85.0175 62.1454 85.7906 63.4802C84.477 64.7766 83.0089 66.6023 81.573 68.0648C80.0985 67.4057 78.5645 66.6015 77.1135 65.8731L75.1521 66.6217C74.9171 68.0713 74.5896 70.6693 74.0241 71.9098C73.6397 72.1386 73.0198 72.1239 72.5452 72.1556C71.0968 72.3018 67.7268 72.2083 66.1362 72.2098C65.9663 70.776 65.4302 68.4231 65.0487 67.0459C64.2105 66.4948 63.7087 66.264 62.804 65.8354C61.2721 66.5856 59.7513 67.3582 58.2419 68.1524C56.5096 66.3404 54.6923 63.8742 53.2682 61.8202C54.3032 60.578 54.9088 59.4554 56.1176 58.1382C55.2451 57.3469 54.6899 56.8556 53.7378 56.1762C53.0435 52.7678 53.0622 50.3449 55.8018 47.9232C54.6768 46.5349 53.746 45.3715 52.7197 43.9049C53.8641 42.5212 56.6057 39.0882 57.8232 38.1018C59.4029 38.7193 60.7436 39.2317 62.2641 39.9896C63.2355 39.1239 63.6908 38.9578 64.8747 38.5591C65.2547 36.9659 65.6848 35.3854 66.1646 33.8194L68.2324 33.7652Z" fill="#191818"/>
<path d="M66.6557 34.3564C68.7457 34.2492 70.848 34.2618 72.9416 34.2524C73.2647 35.661 73.631 37.0597 74.0391 38.446C75.0346 39.1034 75.7119 39.2909 76.836 39.6814C78.4509 39.1351 79.5483 38.2245 81.1441 37.6327C82.5337 38.8453 83.944 40.4815 85.1918 41.8649C84.5039 43.2117 83.739 44.4636 82.9646 45.76C83.8055 46.6535 83.9197 46.9283 84.4011 48.0164C85.8598 48.3548 87.1749 48.9325 88.5439 49.5167C88.5829 51.5965 88.519 53.8781 88.5035 55.9737C87.0668 56.2652 85.5768 56.659 84.1485 57.0126C83.8063 57.9835 83.2714 58.8193 82.7528 59.7094C83.3687 60.7849 84.486 62.3449 85.1982 63.4084C83.9924 64.6219 82.5923 66.2502 81.4216 67.5401C79.8888 66.6601 78.5927 65.9988 77.008 65.2213C76.1417 65.6273 75.5546 65.9004 74.6215 66.1216C74.5749 67.7312 74.1565 69.4386 73.8149 71.0206L73.6526 71.3751C72.9806 71.8641 67.7543 71.6531 66.5877 71.6379C66.1866 69.8675 65.8837 68.25 65.5699 66.4608C64.4528 66.0665 63.8692 65.7847 62.9748 65.0156C61.5243 65.9555 59.932 66.7406 58.396 67.5404C57.0155 66.2651 54.9952 63.5496 53.9024 61.9726C54.7986 60.6196 55.7531 59.4173 56.7463 58.1376C55.8155 57.1491 55.193 56.596 54.1503 55.7133C53.7911 52.1936 53.6446 50.5102 56.4114 48.053C55.4306 46.6787 54.3439 45.2689 53.3323 43.909C54.827 42.1248 56.3461 40.3614 57.8892 38.6191C59.4363 39.3114 60.7781 39.7884 62.3323 40.5779C63.3322 39.8643 64.1338 39.2687 65.3288 38.9191C65.6288 37.7563 66.1749 35.3728 66.6557 34.3564Z" fill="#FEFEFE"/>
<path d="M68.8992 41.9493C74.6733 41.1706 79.9772 45.2429 80.7158 51.0223C81.4544 56.8017 77.3452 62.0769 71.5608 62.7753C65.833 63.467 60.6205 59.4067 59.8893 53.6839C59.1577 47.961 63.1816 42.7204 68.8992 41.9493Z" fill="#191818"/>
<path d="M70.0573 42.4037C75.53 42.288 80.0645 46.6224 80.1955 52.0951C80.3267 57.5675 76.0049 62.114 70.5328 62.2605C65.039 62.4076 60.4702 58.0649 60.3387 52.5706C60.2071 47.0765 64.5627 42.52 70.0573 42.4037Z" fill="#FEFEFE"/>
<path d="M53.0982 82.9922C55.8604 83.2937 57.9495 81.9586 58.1027 85.7227C59.1097 86.2711 59.7688 86.5723 60.8317 87.0138C63.9797 85.3228 64.1795 86.1554 66.1412 88.7818C65.6563 89.5872 64.9359 90.5197 64.3693 91.2937C64.7833 92.0569 64.8023 92.2274 64.9623 93.0896C68.6757 93.7415 68.3508 94.7203 67.6096 98.0906C66.975 98.199 66.0018 98.2213 65.4398 98.4478C63.3217 99.3012 65.1598 101.519 65.8758 102.634C64.761 103.758 63.8493 104.498 62.7369 105.54L60.4638 104.395C59.6326 104.779 58.7569 105.15 57.9164 105.521C57.9519 106.703 58.1007 107.19 57.3536 108.136C53.9493 109 52.7344 108.791 52.4007 105.328C51.4494 104.97 50.6153 104.596 49.6878 104.179C48.7811 104.832 48.157 105.097 47.1346 105.456C42.4854 102.325 45.8701 101.097 45.3753 99.1723C44.5515 98.2544 43.6348 98.2397 42.3785 97.9655C39.7723 90.189 48.8309 96.2086 43.9734 88.7013C44.5424 87.8473 46.0125 86.3748 46.7666 85.5747C48.0076 86.0376 48.3703 86.2611 49.4763 86.9429L52.1977 85.6362C52.3049 84.2499 52.2082 84.0521 53.0982 82.9922Z" fill="#191818"/>
<path d="M53.2576 83.9534C54.7046 83.9353 55.7795 83.9364 57.2353 84.0393C57.2265 87.1655 58.2747 87.0601 60.9586 88.038L63.2355 86.6505L65.1759 88.9266C64.5173 89.6616 63.9539 90.2461 63.4283 91.0852L64.236 93.8168C65.4214 93.9003 66.0814 94.1063 67.2357 94.432C67.3289 97.4997 67.1297 97.3031 64.2703 97.9629C63.9085 98.5386 63.5476 99.3147 63.237 99.9349C63.6264 100.683 64.3348 101.761 64.7953 102.507C64.0427 103.372 63.4239 103.85 62.5037 104.502C61.8044 104.022 61.2041 103.67 60.4734 103.244C59.3273 104.035 58.4502 104.322 57.1541 104.833C57.1017 105.62 57.0451 106.407 56.9836 107.193C56.4243 107.564 54.2862 107.447 53.4923 107.441C53.3886 106.578 53.3426 105.775 53.291 104.908C52.2624 104.521 50.7182 103.873 49.7994 103.301L47.2992 104.619C45.3486 102.891 44.9552 102.618 46.2674 100.32C46.6638 99.6255 46.142 98.6054 45.8323 97.8958C44.6311 97.7338 44.0675 97.6696 42.9255 97.3011C42.7602 94.4698 42.8285 94.1945 45.6413 93.8971C47.3394 89.3666 43.3072 89.9625 47.1498 86.5254L49.3482 88.0576C50.5629 87.5054 51.7644 86.9244 52.9512 86.3145C53.11 85.505 53.1738 84.7705 53.2576 83.9534Z" fill="#FEFEFE"/>
<path d="M53.961 88.5284C57.7761 88.0061 61.2938 90.6712 61.8234 94.4851C62.3531 98.299 59.695 101.822 55.882 102.359C52.0585 102.898 48.5238 100.23 47.9927 96.4061C47.4615 92.5814 50.1355 89.052 53.961 88.5284Z" fill="#191818"/>
<path d="M53.7296 89.4123C57.0645 88.7405 60.3085 90.912 60.9589 94.251C61.6093 97.5899 59.4173 100.82 56.0742 101.449C52.7613 102.073 49.5665 99.9044 48.922 96.5956C48.2775 93.2868 50.4249 90.0782 53.7296 89.4123Z" fill="#FEFEFE"/>
<path d="M84.7893 32.8568C96.6636 33.2613 105.952 39.3727 109.367 51.0665C111.222 57.6012 110.406 64.6049 107.098 70.5381C103.745 76.4584 98.2058 80.8301 91.6682 82.7162C84.3817 84.8057 78.5856 83.6912 72.1315 80.0821L71.7246 79.7783C71.5769 79.3424 71.5702 79.5492 71.7152 79.1367C72.5824 78.9867 75.6401 81.0762 77.4858 81.6694C81.6102 82.9881 86.0112 83.1856 90.2373 82.2413C96.726 80.6903 102.331 76.6219 105.817 70.9333C109.203 65.4217 110.284 58.7991 108.827 52.4968C106.541 42.7462 98.1706 34.4956 87.6293 33.9094C86.8579 33.8666 85.6611 33.8672 84.9873 33.4957C84.8092 33.3976 84.8215 33.0557 84.7893 32.8568Z" fill="#191818"/>
<path d="M278.321 267.34C285.548 267.276 292.774 267.268 300 267.315V268.09C287.922 267.91 275.121 267.977 263.046 268.093L262.795 267.339C267.729 267.374 273.452 267.53 278.321 267.34Z" fill="#191818"/>
</g>
<defs>
<clipPath id="clip0_2_5">
<rect width="300" height="300" fill="white"/>
</clipPath>
</defs>
</svg>
