<svg width="34" height="34" viewBox="0 0 34 34" fill="none" xmlns="http://www.w3.org/2000/svg">
<path d="M17 0C26.3888 0 34 7.61116 34 17C34 26.3888 26.3888 34 17 34C7.61116 34 0 26.3888 0 17C0 7.61116 7.61116 0 17 0ZM17 18C15.9 18 14.8167 18.1294 13.75 18.3877C12.6833 18.646 11.6329 19.0331 10.5996 19.5498C10.1164 19.7998 9.72912 20.1628 9.4375 20.6377C9.14589 21.1127 9 21.6336 9 22.2002V23C9 23.55 9.19622 24.0204 9.58789 24.4121C9.97956 24.8038 10.45 25 11 25H23C23.55 25 24.0204 24.8038 24.4121 24.4121C24.8038 24.0204 25 23.55 25 23V22.2002C25 21.6336 24.8541 21.1127 24.5625 20.6377C24.2709 20.1628 23.8836 19.7998 23.4004 19.5498C22.3671 19.0331 21.3167 18.646 20.25 18.3877C19.1833 18.1294 18.1 18 17 18ZM17 9C15.9 9 14.9581 9.39147 14.1748 10.1748C13.3915 10.9581 13 11.9 13 13C13 14.1 13.3915 15.0419 14.1748 15.8252C14.9581 16.6085 15.9 17 17 17C18.1 17 19.0419 16.6085 19.8252 15.8252C20.6085 15.0419 21 14.1 21 13C21 11.9 20.6085 10.9581 19.8252 10.1748C19.0419 9.39147 18.1 9 17 9Z" fill="#BCC7D2"/>
</svg>
