<svg width="15" height="15" viewBox="0 0 15 15" fill="none" xmlns="http://www.w3.org/2000/svg">
<mask id="mask0_92_1309" style="mask-type:alpha" maskUnits="userSpaceOnUse" x="0" y="0" width="15" height="15">
<rect width="15" height="15" fill="#D9D9D9"/>
</mask>
<g mask="url(#mask0_92_1309)">
<path d="M1.68757 11.0156C1.56257 10.8906 1.50267 10.7422 1.50788 10.5703C1.51309 10.3984 1.57299 10.2552 1.68757 10.1406L4.98444 6.79688C5.22403 6.55729 5.5209 6.4375 5.87507 6.4375C6.22924 6.4375 6.52611 6.55729 6.76569 6.79688L8.37507 8.42188L11.6251 5.20312H10.6251C10.448 5.20312 10.2995 5.14323 10.1798 5.02344C10.06 4.90365 10.0001 4.75521 10.0001 4.57812C10.0001 4.40104 10.06 4.2526 10.1798 4.13281C10.2995 4.01302 10.448 3.95312 10.6251 3.95312H13.1251C13.3022 3.95312 13.4506 4.01302 13.5704 4.13281C13.6902 4.2526 13.7501 4.40104 13.7501 4.57812V7.07812C13.7501 7.25521 13.6902 7.40365 13.5704 7.52344C13.4506 7.64323 13.3022 7.70312 13.1251 7.70312C12.948 7.70312 12.7995 7.64323 12.6798 7.52344C12.56 7.40365 12.5001 7.25521 12.5001 7.07812V6.07812L9.26569 9.3125C9.02611 9.55208 8.72924 9.67188 8.37507 9.67188C8.0209 9.67188 7.72403 9.55208 7.48444 9.3125L5.87507 7.70312L2.56257 11.0156C2.44798 11.1302 2.30215 11.1875 2.12507 11.1875C1.94799 11.1875 1.80215 11.1302 1.68757 11.0156Z" fill="#46BA2F"/>
</g>
</svg>
