<svg width="119" height="18" viewBox="0 0 119 18" fill="none" xmlns="http://www.w3.org/2000/svg">
<path d="M5.98 3.52C5.79333 4.02667 5.58 4.62667 5.34 5.32C5.1 6.01333 4.84667 6.73333 4.58 7.48C4.32667 8.21333 4.08667 8.91333 3.86 9.58L3.68 10.34C3.6 10.5933 3.50667 10.8867 3.4 11.22C3.29333 11.5533 3.18 11.9 3.06 12.26C2.95333 12.6067 2.84667 12.94 2.74 13.26C2.63333 13.5667 2.55333 13.82 2.5 14.02C2.38 14.0733 2.25333 14.1133 2.12 14.14C2 14.1667 1.84667 14.18 1.66 14.18C1.34 14.18 1.07333 14.1067 0.86 13.96C0.66 13.8133 0.56 13.6 0.56 13.32C0.56 13.1733 0.58 13.0333 0.62 12.9C0.673333 12.7533 0.726667 12.5933 0.78 12.42C0.926667 11.98 1.11333 11.4333 1.34 10.78C1.56667 10.1133 1.82 9.39333 2.1 8.62C2.38 7.84667 2.66667 7.06 2.96 6.26C3.25333 5.46 3.53333 4.7 3.8 3.98C4.08 3.24667 4.32667 2.6 4.54 2.04C4.68667 1.97333 4.89333 1.90667 5.16 1.84C5.44 1.76 5.72 1.72 6 1.72C6.36 1.72 6.69333 1.77333 7 1.88C7.32 1.98667 7.52 2.16667 7.6 2.42C7.90667 3.16667 8.22667 4.02667 8.56 5C8.90667 5.96 9.25333 6.96 9.6 8C9.96 9.04 10.3 10.0533 10.62 11.04C10.94 12.0267 11.2267 12.92 11.48 13.72C11.3733 13.8533 11.22 13.96 11.02 14.04C10.8333 14.12 10.62 14.16 10.38 14.16C10.02 14.16 9.76 14.0933 9.6 13.96C9.44 13.8267 9.31333 13.6 9.22 13.28L8.26 10.34L8.04 9.42C7.8 8.68667 7.55333 7.94667 7.3 7.2C7.06 6.45333 6.82667 5.76 6.6 5.12C6.38667 4.48 6.20667 3.94667 6.06 3.52H5.98ZM3.46 9.26H8.76L9.1 10.94H2.74L3.46 9.26ZM31.7913 9.86H29.7713V7.94C29.7713 7.27333 29.5779 6.78667 29.1913 6.48C28.8179 6.17333 28.3113 6.02 27.6713 6.02C27.2046 6.02 26.7846 6.08 26.4113 6.2C26.0513 6.30667 25.7313 6.44 25.4513 6.6V9.86H23.4113V6.56C23.4113 6.25333 23.4713 6.00667 23.5913 5.82C23.7246 5.63333 23.9313 5.44667 24.2113 5.26C24.5846 5.03333 25.0713 4.83333 25.6713 4.66C26.2713 4.47333 26.9446 4.38 27.6913 4.38C28.9713 4.38 29.9713 4.67333 30.6913 5.26C31.4246 5.83333 31.7913 6.7 31.7913 7.86V9.86ZM25.4513 8.82V13.96C25.3713 13.9867 25.2446 14.02 25.0713 14.06C24.9113 14.1 24.7313 14.12 24.5312 14.12C24.1579 14.12 23.8779 14.0533 23.6913 13.92C23.5046 13.7733 23.4113 13.5267 23.4113 13.18V8.82H25.4513ZM31.7913 8.82V13.96C31.7113 13.9867 31.5846 14.02 31.4113 14.06C31.2379 14.1 31.0579 14.12 30.8713 14.12C30.4846 14.12 30.2046 14.0533 30.0313 13.92C29.8579 13.7733 29.7713 13.5267 29.7713 13.18V8.82H31.7913ZM40.9436 10V8.16C40.9436 7.42667 40.7369 6.88667 40.3236 6.54C39.9236 6.19333 39.4103 6.02 38.7836 6.02C38.2903 6.02 37.8369 6.11333 37.4236 6.3C37.0103 6.48667 36.6569 6.70667 36.3636 6.96L36.1436 5.32C36.4636 5.10667 36.8703 4.9 37.3636 4.7C37.8703 4.48667 38.4503 4.38 39.1036 4.38C40.2503 4.38 41.1769 4.68667 41.8836 5.3C42.6036 5.91333 42.9636 6.84 42.9636 8.08V10H40.9436ZM36.6436 8.72V13.96C36.5636 13.9867 36.4369 14.02 36.2636 14.06C36.1036 14.1 35.9236 14.12 35.7236 14.12C35.3503 14.12 35.0703 14.0533 34.8836 13.92C34.6969 13.7733 34.6036 13.5267 34.6036 13.18V8.72H36.6436ZM42.9636 8.76V13.96C42.8836 13.9867 42.7569 14.02 42.5836 14.06C42.4103 14.1 42.2303 14.12 42.0436 14.12C41.6703 14.12 41.3903 14.0533 41.2036 13.92C41.0303 13.7733 40.9436 13.5267 40.9436 13.18V8.74L42.9636 8.76ZM34.6036 9.74V1.02C34.6969 0.993333 34.8303 0.966666 35.0036 0.939999C35.1769 0.899999 35.3636 0.88 35.5636 0.88C35.9369 0.88 36.2103 0.946666 36.3836 1.08C36.5569 1.21333 36.6436 1.45333 36.6436 1.8V9.74H34.6036ZM54.6755 9.32C54.6755 10.3333 54.4821 11.2133 54.0955 11.96C53.7088 12.6933 53.1621 13.2667 52.4555 13.68C51.7488 14.08 50.9221 14.28 49.9755 14.28C49.0155 14.28 48.1821 14.08 47.4755 13.68C46.7688 13.2667 46.2221 12.6933 45.8355 11.96C45.4488 11.2133 45.2555 10.3333 45.2555 9.32C45.2555 8.30667 45.4488 7.43333 45.8355 6.7C46.2355 5.95333 46.7888 5.38 47.4955 4.98C48.2021 4.58 49.0288 4.38 49.9755 4.38C50.9088 4.38 51.7288 4.58667 52.4355 5C53.1421 5.4 53.6888 5.96667 54.0755 6.7C54.4755 7.43333 54.6755 8.30667 54.6755 9.32ZM49.9755 6.02C49.1621 6.02 48.5155 6.31333 48.0355 6.9C47.5688 7.48667 47.3355 8.29333 47.3355 9.32C47.3355 10.3733 47.5621 11.1933 48.0155 11.78C48.4821 12.3533 49.1355 12.64 49.9755 12.64C50.8021 12.64 51.4421 12.3467 51.8955 11.76C52.3621 11.1733 52.5955 10.36 52.5955 9.32C52.5955 8.29333 52.3621 7.48667 51.8955 6.9C51.4288 6.31333 50.7888 6.02 49.9755 6.02ZM64.8064 9.82H62.7864V7.74C62.7864 7.14 62.6131 6.70667 62.2664 6.44C61.9197 6.16 61.4664 6.02 60.9064 6.02C60.5331 6.02 60.1731 6.08 59.8264 6.2C59.4931 6.32 59.2131 6.45333 58.9864 6.6V9.82H56.9464V6.56C56.9464 6.26667 57.0064 6.02667 57.1264 5.84C57.2597 5.64 57.4664 5.44667 57.7464 5.26C58.1197 5.02 58.5997 4.81333 59.1864 4.64C59.7731 4.46667 60.3664 4.38 60.9664 4.38C61.6331 4.38 62.2331 4.48 62.7664 4.68C63.2997 4.88 63.7197 5.16667 64.0264 5.54C64.1064 5.63333 64.1797 5.72 64.2464 5.8C64.3131 5.86667 64.3731 5.95333 64.4264 6.06C64.5331 6.23333 64.6197 6.44667 64.6864 6.7C64.7664 6.95333 64.8064 7.23333 64.8064 7.54V9.82ZM70.6464 9.82H68.6064V7.74C68.6064 7.14 68.4397 6.70667 68.1064 6.44C67.7731 6.16 67.3264 6.02 66.7664 6.02C66.3531 6.02 65.9531 6.10667 65.5664 6.28C65.1797 6.44 64.8397 6.67333 64.5464 6.98L63.6064 5.64C63.9797 5.30667 64.4464 5.01333 65.0064 4.76C65.5797 4.50667 66.2397 4.38 66.9864 4.38C67.6931 4.38 68.3197 4.49333 68.8664 4.72C69.4131 4.94667 69.8464 5.30667 70.1664 5.8C70.4864 6.28 70.6464 6.89333 70.6464 7.64V9.82ZM58.9864 8.82V13.96C58.9064 13.9867 58.7797 14.02 58.6064 14.06C58.4464 14.1 58.2664 14.12 58.0664 14.12C57.6931 14.12 57.4131 14.0533 57.2264 13.92C57.0397 13.7733 56.9464 13.5267 56.9464 13.18V8.82H58.9864ZM64.8064 8.82V13.96C64.7264 13.9867 64.5997 14.02 64.4264 14.06C64.2531 14.1 64.0731 14.12 63.8864 14.12C63.5131 14.12 63.2331 14.0533 63.0464 13.92C62.8731 13.7733 62.7864 13.5267 62.7864 13.18V8.82H64.8064ZM70.6464 8.82V13.96C70.5531 13.9867 70.4197 14.02 70.2464 14.06C70.0731 14.1 69.8931 14.12 69.7064 14.12C69.3331 14.12 69.0531 14.0533 68.8664 13.92C68.6931 13.7733 68.6064 13.5267 68.6064 13.18V8.82H70.6464ZM74.1713 8.96L79.8713 8.16C79.8179 7.53333 79.5913 7.01333 79.1913 6.6C78.7913 6.17333 78.2246 5.96 77.4913 5.96C76.7313 5.96 76.1046 6.22667 75.6113 6.76C75.1179 7.29333 74.8713 8.06 74.8713 9.06L74.8913 9.8C74.9979 10.7467 75.3379 11.46 75.9113 11.94C76.4846 12.42 77.2446 12.66 78.1913 12.66C78.7513 12.66 79.2646 12.5733 79.7313 12.4C80.1979 12.2267 80.5646 12.0333 80.8313 11.82C80.9913 11.9267 81.1246 12.06 81.2313 12.22C81.3379 12.3667 81.3913 12.5333 81.3913 12.72C81.3913 13.0133 81.2379 13.28 80.9313 13.52C80.6379 13.76 80.2446 13.9467 79.7513 14.08C79.2579 14.2133 78.6979 14.28 78.0713 14.28C77.0313 14.28 76.1246 14.0933 75.3513 13.72C74.5913 13.3333 73.9979 12.7667 73.5713 12.02C73.1446 11.26 72.9313 10.3333 72.9313 9.24C72.9313 8.45333 73.0446 7.76 73.2713 7.16C73.5113 6.54667 73.8379 6.04 74.2513 5.64C74.6646 5.22667 75.1513 4.91333 75.7113 4.7C76.2713 4.48667 76.8713 4.38 77.5113 4.38C78.3513 4.38 79.0913 4.55333 79.7313 4.9C80.3713 5.24667 80.8713 5.73333 81.2313 6.36C81.6046 6.98667 81.7913 7.7 81.7913 8.5C81.7913 8.83333 81.7113 9.08 81.5513 9.24C81.3913 9.38667 81.1646 9.48 80.8713 9.52L74.2513 10.46L74.1713 8.96ZM90.0625 17.54C89.9558 17.58 89.8292 17.6133 89.6825 17.64C89.5358 17.6667 89.3758 17.68 89.2025 17.68C88.8825 17.68 88.6358 17.6133 88.4625 17.48C88.3025 17.3467 88.2225 17.1 88.2225 16.74V0.52C88.3425 0.479999 88.4692 0.446666 88.6025 0.42C88.7492 0.393332 88.9092 0.379999 89.0825 0.379999C89.4158 0.379999 89.6625 0.446666 89.8225 0.58C89.9825 0.713333 90.0625 0.96 90.0625 1.32V17.54ZM103.203 4.32C102.176 4.32 101.389 4.63333 100.843 5.26C100.296 5.88667 100.023 6.77333 100.023 7.92C100.023 9.08 100.323 9.97333 100.923 10.6C101.536 11.2267 102.356 11.54 103.383 11.54C103.929 11.54 104.389 11.4667 104.763 11.32C105.149 11.1733 105.516 11.0067 105.863 10.82C106.089 11.0067 106.263 11.2333 106.383 11.5C106.516 11.7533 106.583 12.0533 106.583 12.4C106.583 12.9467 106.276 13.4133 105.663 13.8C105.063 14.1733 104.143 14.36 102.903 14.36C102.009 14.36 101.169 14.2333 100.383 13.98C99.596 13.7267 98.9093 13.34 98.3227 12.82C97.736 12.2867 97.2693 11.62 96.9227 10.82C96.5893 10.0067 96.4227 9.04 96.4227 7.92C96.4227 6.88 96.5827 5.96667 96.9027 5.18C97.236 4.38 97.6827 3.70667 98.2427 3.16C98.816 2.61333 99.4827 2.2 100.243 1.92C101.003 1.64 101.816 1.5 102.683 1.5C103.909 1.5 104.856 1.7 105.523 2.1C106.203 2.5 106.543 3.01333 106.543 3.64C106.543 3.98667 106.456 4.28667 106.283 4.54C106.109 4.79333 105.909 4.99333 105.683 5.14C105.336 4.91333 104.963 4.72 104.563 4.56C104.176 4.4 103.723 4.32 103.203 4.32ZM111.848 11.5C112.035 11.5533 112.275 11.5933 112.568 11.62C112.862 11.6333 113.142 11.64 113.408 11.64C113.942 11.64 114.382 11.5333 114.728 11.32C115.088 11.0933 115.268 10.7467 115.268 10.28C115.268 9.84 115.122 9.52667 114.828 9.34C114.535 9.15333 114.088 9.06 113.488 9.06H111.848V11.5ZM111.848 6.62H113.308C113.882 6.62 114.295 6.51333 114.548 6.3C114.815 6.08667 114.948 5.77333 114.948 5.36C114.948 5 114.795 4.71333 114.488 4.5C114.195 4.28667 113.748 4.18 113.148 4.18C112.948 4.18 112.715 4.18667 112.448 4.2C112.195 4.21333 111.995 4.23333 111.848 4.26V6.62ZM113.148 14.32C112.922 14.32 112.655 14.3133 112.348 14.3C112.042 14.2867 111.722 14.26 111.388 14.22C111.068 14.18 110.748 14.1267 110.428 14.06C110.108 14.0067 109.815 13.9267 109.548 13.82C108.815 13.54 108.448 13.0533 108.448 12.36V3.02C108.448 2.74 108.522 2.52667 108.668 2.38C108.828 2.22 109.042 2.09333 109.308 2C109.762 1.84 110.328 1.72667 111.008 1.66C111.688 1.58 112.388 1.54 113.108 1.54C114.815 1.54 116.128 1.82667 117.048 2.4C117.968 2.97333 118.428 3.86 118.428 5.06C118.428 5.66 118.255 6.18 117.908 6.62C117.562 7.04667 117.095 7.36 116.508 7.56C117.175 7.74667 117.728 8.08667 118.168 8.58C118.622 9.07333 118.848 9.69333 118.848 10.44C118.848 11.76 118.355 12.74 117.368 13.38C116.395 14.0067 114.988 14.32 113.148 14.32Z" fill="#2C2E42"/>
<path d="M13.2522 1.78C13.2522 1.44667 13.3655 1.16667 13.5922 0.939999C13.8322 0.7 14.1322 0.58 14.4922 0.58C14.8522 0.58 15.1455 0.7 15.3722 0.939999C15.5989 1.16667 15.7122 1.44667 15.7122 1.78C15.7122 2.11333 15.5989 2.39333 15.3722 2.62C15.1455 2.84667 14.8522 2.96 14.4922 2.96C14.1322 2.96 13.8322 2.84667 13.5922 2.62C13.3655 2.39333 13.2522 2.11333 13.2522 1.78ZM15.5122 8.72V13.96C15.4189 13.9867 15.2855 14.02 15.1122 14.06C14.9522 14.1 14.7722 14.12 14.5722 14.12C14.2122 14.12 13.9389 14.0533 13.7522 13.92C13.5655 13.7733 13.4722 13.5267 13.4722 13.18V8.72H15.5122ZM13.4722 9.74V4.7C13.5655 4.67333 13.6922 4.64667 13.8522 4.62C14.0255 4.58 14.2122 4.56 14.4122 4.56C14.7855 4.56 15.0589 4.63333 15.2322 4.78C15.4189 4.91333 15.5122 5.15333 15.5122 5.5V9.74H13.4722ZM18.2717 1.78C18.2717 1.44667 18.3851 1.16667 18.6117 0.939999C18.8517 0.7 19.1517 0.58 19.5117 0.58C19.8717 0.58 20.1651 0.7 20.3917 0.939999C20.6184 1.16667 20.7317 1.44667 20.7317 1.78C20.7317 2.11333 20.6184 2.39333 20.3917 2.62C20.1651 2.84667 19.8717 2.96 19.5117 2.96C19.1517 2.96 18.8517 2.84667 18.6117 2.62C18.3851 2.39333 18.2717 2.11333 18.2717 1.78ZM20.5317 8.72V13.96C20.4384 13.9867 20.3051 14.02 20.1317 14.06C19.9717 14.1 19.7917 14.12 19.5917 14.12C19.2317 14.12 18.9584 14.0533 18.7717 13.92C18.5851 13.7733 18.4917 13.5267 18.4917 13.18V8.72H20.5317ZM18.4917 9.74V4.7C18.5851 4.67333 18.7117 4.64667 18.8717 4.62C19.0451 4.58 19.2317 4.56 19.4317 4.56C19.8051 4.56 20.0784 4.63333 20.2517 4.78C20.4384 4.91333 20.5317 5.15333 20.5317 5.5V9.74H18.4917Z" fill="#DFB916"/>
</svg>
