<svg width="103" height="18" viewBox="0 0 103 18" fill="none" xmlns="http://www.w3.org/2000/svg">
<path d="M7.37588 3.9C7.14255 4.53333 6.87588 5.28333 6.57588 6.15C6.27588 7.01667 5.95921 7.91667 5.62588 8.85C5.30921 9.76667 5.00921 10.6417 4.72588 11.475L4.50088 12.425C4.40088 12.7417 4.28421 13.1083 4.15088 13.525C4.01755 13.9417 3.87588 14.375 3.72588 14.825C3.59255 15.2583 3.45921 15.675 3.32588 16.075C3.19255 16.4583 3.09255 16.775 3.02588 17.025C2.87588 17.0917 2.71755 17.1417 2.55088 17.175C2.40088 17.2083 2.20921 17.225 1.97588 17.225C1.57588 17.225 1.24255 17.1333 0.975879 16.95C0.725879 16.7667 0.600879 16.5 0.600879 16.15C0.600879 15.9667 0.625879 15.7917 0.675879 15.625C0.742546 15.4417 0.809212 15.2417 0.875879 15.025C1.05921 14.475 1.29255 13.7917 1.57588 12.975C1.85921 12.1417 2.17588 11.2417 2.52588 10.275C2.87588 9.30833 3.23421 8.325 3.60088 7.325C3.96755 6.325 4.31755 5.375 4.65088 4.475C5.00088 3.55833 5.30921 2.75 5.57588 2.05C5.75921 1.96667 6.01755 1.88333 6.35088 1.8C6.70088 1.7 7.05088 1.65 7.40088 1.65C7.85088 1.65 8.26755 1.71667 8.65088 1.85C9.05088 1.98333 9.30088 2.20833 9.40088 2.525C9.78421 3.45833 10.1842 4.53333 10.6009 5.75C11.0342 6.95 11.4675 8.2 11.9009 9.5C12.3509 10.8 12.7759 12.0667 13.1759 13.3C13.5759 14.5333 13.9342 15.65 14.2509 16.65C14.1175 16.8167 13.9259 16.95 13.6759 17.05C13.4425 17.15 13.1759 17.2 12.8759 17.2C12.4259 17.2 12.1009 17.1167 11.9009 16.95C11.7009 16.7833 11.5425 16.5 11.4259 16.1L10.2259 12.425L9.95088 11.275C9.65088 10.3583 9.34255 9.43333 9.02588 8.5C8.72588 7.56667 8.43421 6.7 8.15088 5.9C7.88421 5.1 7.65921 4.43333 7.47588 3.9H7.37588ZM4.22588 11.075H10.8509L11.2759 13.175H3.32588L4.22588 11.075ZM39.6399 11.825H37.1149V9.425C37.1149 8.59167 36.8733 7.98333 36.3899 7.6C35.9233 7.21667 35.2899 7.025 34.4899 7.025C33.9066 7.025 33.3816 7.1 32.9149 7.25C32.4649 7.38333 32.0649 7.55 31.7149 7.75V11.825H29.1649V7.7C29.1649 7.31667 29.2399 7.00833 29.3899 6.775C29.5566 6.54167 29.8149 6.30833 30.1649 6.075C30.6316 5.79167 31.2399 5.54167 31.9899 5.325C32.7399 5.09167 33.5816 4.975 34.5149 4.975C36.1149 4.975 37.3649 5.34167 38.2649 6.075C39.1816 6.79167 39.6399 7.875 39.6399 9.325V11.825ZM31.7149 10.525V16.95C31.6149 16.9833 31.4566 17.025 31.2399 17.075C31.0399 17.125 30.8149 17.15 30.5649 17.15C30.0983 17.15 29.7483 17.0667 29.5149 16.9C29.2816 16.7167 29.1649 16.4083 29.1649 15.975V10.525H31.7149ZM39.6399 10.525V16.95C39.5399 16.9833 39.3816 17.025 39.1649 17.075C38.9483 17.125 38.7233 17.15 38.4899 17.15C38.0066 17.15 37.6566 17.0667 37.4399 16.9C37.2233 16.7167 37.1149 16.4083 37.1149 15.975V10.525H39.6399ZM51.0804 12V9.7C51.0804 8.78333 50.822 8.10833 50.3054 7.675C49.8054 7.24167 49.1637 7.025 48.3804 7.025C47.7637 7.025 47.197 7.14167 46.6804 7.375C46.1637 7.60833 45.722 7.88333 45.3554 8.2L45.0804 6.15C45.4804 5.88333 45.9887 5.625 46.6054 5.375C47.2387 5.10833 47.9637 4.975 48.7804 4.975C50.2137 4.975 51.372 5.35833 52.2554 6.125C53.1554 6.89167 53.6054 8.05 53.6054 9.6V12H51.0804ZM45.7054 10.4V16.95C45.6054 16.9833 45.447 17.025 45.2304 17.075C45.0304 17.125 44.8054 17.15 44.5554 17.15C44.0887 17.15 43.7387 17.0667 43.5054 16.9C43.272 16.7167 43.1554 16.4083 43.1554 15.975V10.4H45.7054ZM53.6054 10.45V16.95C53.5054 16.9833 53.347 17.025 53.1304 17.075C52.9137 17.125 52.6887 17.15 52.4554 17.15C51.9887 17.15 51.6387 17.0667 51.4054 16.9C51.1887 16.7167 51.0804 16.4083 51.0804 15.975V10.425L53.6054 10.45ZM43.1554 11.675V0.774999C43.272 0.741666 43.4387 0.708332 43.6554 0.674999C43.872 0.624999 44.1054 0.6 44.3554 0.6C44.822 0.6 45.1637 0.683333 45.3804 0.849999C45.597 1.01667 45.7054 1.31667 45.7054 1.75V11.675H43.1554ZM68.2452 11.15C68.2452 12.4167 68.0035 13.5167 67.5202 14.45C67.0369 15.3667 66.3535 16.0833 65.4702 16.6C64.5869 17.1 63.5535 17.35 62.3702 17.35C61.1702 17.35 60.1285 17.1 59.2452 16.6C58.3619 16.0833 57.6785 15.3667 57.1952 14.45C56.7119 13.5167 56.4702 12.4167 56.4702 11.15C56.4702 9.88333 56.7119 8.79167 57.1952 7.875C57.6952 6.94167 58.3869 6.225 59.2702 5.725C60.1535 5.225 61.1869 4.975 62.3702 4.975C63.5369 4.975 64.5619 5.23333 65.4452 5.75C66.3285 6.25 67.0119 6.95833 67.4952 7.875C67.9952 8.79167 68.2452 9.88333 68.2452 11.15ZM62.3702 7.025C61.3535 7.025 60.5452 7.39167 59.9452 8.125C59.3619 8.85833 59.0702 9.86667 59.0702 11.15C59.0702 12.4667 59.3535 13.4917 59.9202 14.225C60.5035 14.9417 61.3202 15.3 62.3702 15.3C63.4035 15.3 64.2035 14.9333 64.7702 14.2C65.3535 13.4667 65.6452 12.45 65.6452 11.15C65.6452 9.86667 65.3535 8.85833 64.7702 8.125C64.1869 7.39167 63.3869 7.025 62.3702 7.025ZM80.9089 11.775H78.3839V9.175C78.3839 8.425 78.1672 7.88333 77.7339 7.55C77.3006 7.2 76.7339 7.025 76.0339 7.025C75.5672 7.025 75.1172 7.1 74.6839 7.25C74.2672 7.4 73.9172 7.56667 73.6339 7.75V11.775H71.0839V7.7C71.0839 7.33333 71.1589 7.03333 71.3089 6.8C71.4756 6.55 71.7339 6.30833 72.0839 6.075C72.5506 5.775 73.1506 5.51667 73.8839 5.3C74.6172 5.08333 75.3589 4.975 76.1089 4.975C76.9422 4.975 77.6922 5.1 78.3589 5.35C79.0256 5.6 79.5506 5.95833 79.9339 6.425C80.0339 6.54167 80.1256 6.65 80.2089 6.75C80.2922 6.83333 80.3672 6.94167 80.4339 7.075C80.5672 7.29167 80.6756 7.55833 80.7589 7.875C80.8589 8.19167 80.9089 8.54167 80.9089 8.925V11.775ZM88.2089 11.775H85.6589V9.175C85.6589 8.425 85.4506 7.88333 85.0339 7.55C84.6172 7.2 84.0589 7.025 83.3589 7.025C82.8422 7.025 82.3422 7.13333 81.8589 7.35C81.3756 7.55 80.9506 7.84167 80.5839 8.225L79.4089 6.55C79.8756 6.13333 80.4589 5.76667 81.1589 5.45C81.8756 5.13333 82.7006 4.975 83.6339 4.975C84.5172 4.975 85.3006 5.11667 85.9839 5.4C86.6672 5.68333 87.2089 6.13333 87.6089 6.75C88.0089 7.35 88.2089 8.11667 88.2089 9.05V11.775ZM73.6339 10.525V16.95C73.5339 16.9833 73.3756 17.025 73.1589 17.075C72.9589 17.125 72.7339 17.15 72.4839 17.15C72.0172 17.15 71.6672 17.0667 71.4339 16.9C71.2006 16.7167 71.0839 16.4083 71.0839 15.975V10.525H73.6339ZM80.9089 10.525V16.95C80.8089 16.9833 80.6506 17.025 80.4339 17.075C80.2172 17.125 79.9922 17.15 79.7589 17.15C79.2922 17.15 78.9422 17.0667 78.7089 16.9C78.4922 16.7167 78.3839 16.4083 78.3839 15.975V10.525H80.9089ZM88.2089 10.525V16.95C88.0922 16.9833 87.9256 17.025 87.7089 17.075C87.4922 17.125 87.2672 17.15 87.0339 17.15C86.5672 17.15 86.2172 17.0667 85.9839 16.9C85.7672 16.7167 85.6589 16.4083 85.6589 15.975V10.525H88.2089ZM92.6149 10.7L99.7399 9.7C99.6733 8.91667 99.3899 8.26667 98.8899 7.75C98.3899 7.21667 97.6816 6.95 96.7649 6.95C95.8149 6.95 95.0316 7.28333 94.4149 7.95C93.7983 8.61667 93.4899 9.575 93.4899 10.825L93.5149 11.75C93.6483 12.9333 94.0733 13.825 94.7899 14.425C95.5066 15.025 96.4566 15.325 97.6399 15.325C98.3399 15.325 98.9816 15.2167 99.5649 15C100.148 14.7833 100.607 14.5417 100.94 14.275C101.14 14.4083 101.307 14.575 101.44 14.775C101.573 14.9583 101.64 15.1667 101.64 15.4C101.64 15.7667 101.448 16.1 101.065 16.4C100.698 16.7 100.207 16.9333 99.5899 17.1C98.9733 17.2667 98.2733 17.35 97.4899 17.35C96.1899 17.35 95.0566 17.1167 94.0899 16.65C93.1399 16.1667 92.3983 15.4583 91.8649 14.525C91.3316 13.575 91.0649 12.4167 91.0649 11.05C91.0649 10.0667 91.2066 9.2 91.4899 8.45C91.7899 7.68333 92.1983 7.05 92.7149 6.55C93.2316 6.03333 93.8399 5.64167 94.5399 5.375C95.2399 5.10833 95.9899 4.975 96.7899 4.975C97.8399 4.975 98.7649 5.19167 99.5649 5.625C100.365 6.05833 100.99 6.66667 101.44 7.45C101.907 8.23333 102.14 9.125 102.14 10.125C102.14 10.5417 102.04 10.85 101.84 11.05C101.64 11.2333 101.357 11.35 100.99 11.4L92.7149 12.575L92.6149 10.7Z" fill="#2C2E42"/>
<path d="M16.4661 1.725C16.4661 1.30833 16.6078 0.958332 16.8911 0.674999C17.1911 0.374999 17.5661 0.225 18.0161 0.225C18.4661 0.225 18.8328 0.374999 19.1161 0.674999C19.3994 0.958332 19.5411 1.30833 19.5411 1.725C19.5411 2.14167 19.3994 2.49167 19.1161 2.775C18.8328 3.05833 18.4661 3.2 18.0161 3.2C17.5661 3.2 17.1911 3.05833 16.8911 2.775C16.6078 2.49167 16.4661 2.14167 16.4661 1.725ZM19.2911 10.4V16.95C19.1744 16.9833 19.0078 17.025 18.7911 17.075C18.5911 17.125 18.3661 17.15 18.1161 17.15C17.6661 17.15 17.3244 17.0667 17.0911 16.9C16.8578 16.7167 16.7411 16.4083 16.7411 15.975V10.4H19.2911ZM16.7411 11.675V5.375C16.8578 5.34167 17.0161 5.30833 17.2161 5.275C17.4328 5.225 17.6661 5.2 17.9161 5.2C18.3828 5.2 18.7244 5.29167 18.9411 5.475C19.1744 5.64167 19.2911 5.94167 19.2911 6.375V11.675H16.7411ZM22.7405 1.725C22.7405 1.30833 22.8822 0.958332 23.1655 0.674999C23.4655 0.374999 23.8405 0.225 24.2905 0.225C24.7405 0.225 25.1072 0.374999 25.3905 0.674999C25.6739 0.958332 25.8155 1.30833 25.8155 1.725C25.8155 2.14167 25.6739 2.49167 25.3905 2.775C25.1072 3.05833 24.7405 3.2 24.2905 3.2C23.8405 3.2 23.4655 3.05833 23.1655 2.775C22.8822 2.49167 22.7405 2.14167 22.7405 1.725ZM25.5655 10.4V16.95C25.4489 16.9833 25.2822 17.025 25.0655 17.075C24.8655 17.125 24.6405 17.15 24.3905 17.15C23.9405 17.15 23.5989 17.0667 23.3655 16.9C23.1322 16.7167 23.0155 16.4083 23.0155 15.975V10.4H25.5655ZM23.0155 11.675V5.375C23.1322 5.34167 23.2905 5.30833 23.4905 5.275C23.7072 5.225 23.9405 5.2 24.1905 5.2C24.6572 5.2 24.9989 5.29167 25.2155 5.475C25.4489 5.64167 25.5655 5.94167 25.5655 6.375V11.675H23.0155Z" fill="#DFB916"/>
</svg>
