<svg width="28" height="28" viewBox="0 0 28 28" fill="none" xmlns="http://www.w3.org/2000/svg">
<mask id="mask0_159_341" style="mask-type:alpha" maskUnits="userSpaceOnUse" x="0" y="0" width="28" height="28">
<rect x="0.73584" y="0.695312" width="26.6089" height="26.6089" fill="#D9D9D9"/>
</mask>
<g mask="url(#mask0_159_341)">
<path d="M6.27942 25.0872C5.66963 25.0872 5.14762 24.8701 4.71338 24.4358C4.27913 24.0016 4.06201 23.4796 4.06201 22.8698V7.34791C4.06201 6.73812 4.27913 6.2161 4.71338 5.78186C5.14762 5.34762 5.66963 5.1305 6.27942 5.1305H7.38813V4.02179C7.38813 3.70766 7.49438 3.44434 7.70688 3.23184C7.91938 3.01934 8.1827 2.91309 8.49683 2.91309C8.81096 2.91309 9.07428 3.01934 9.28678 3.23184C9.49928 3.44434 9.60554 3.70766 9.60554 4.02179V5.1305H18.4752V4.02179C18.4752 3.70766 18.5814 3.44434 18.7939 3.23184C19.0064 3.01934 19.2697 2.91309 19.5839 2.91309C19.898 2.91309 20.1613 3.01934 20.3738 3.23184C20.5863 3.44434 20.6926 3.70766 20.6926 4.02179V5.1305H21.8013C22.4111 5.1305 22.9331 5.34762 23.3673 5.78186C23.8016 6.2161 24.0187 6.73812 24.0187 7.34791V22.8698C24.0187 23.4796 23.8016 24.0016 23.3673 24.4358C22.9331 24.8701 22.4111 25.0872 21.8013 25.0872H6.27942ZM6.27942 22.8698H21.8013V11.7827H6.27942V22.8698ZM14.0404 16.2175C13.7262 16.2175 13.4629 16.1113 13.2504 15.8988C13.0379 15.6863 12.9317 15.423 12.9317 15.1088C12.9317 14.7947 13.0379 14.5314 13.2504 14.3189C13.4629 14.1064 13.7262 14.0001 14.0404 14.0001C14.3545 14.0001 14.6178 14.1064 14.8303 14.3189C15.0428 14.5314 15.1491 14.7947 15.1491 15.1088C15.1491 15.423 15.0428 15.6863 14.8303 15.8988C14.6178 16.1113 14.3545 16.2175 14.0404 16.2175ZM9.60554 16.2175C9.2914 16.2175 9.02809 16.1113 8.81558 15.8988C8.60308 15.6863 8.49683 15.423 8.49683 15.1088C8.49683 14.7947 8.60308 14.5314 8.81558 14.3189C9.02809 14.1064 9.2914 14.0001 9.60554 14.0001C9.91967 14.0001 10.183 14.1064 10.3955 14.3189C10.608 14.5314 10.7142 14.7947 10.7142 15.1088C10.7142 15.423 10.608 15.6863 10.3955 15.8988C10.183 16.1113 9.91967 16.2175 9.60554 16.2175ZM18.4752 16.2175C18.161 16.2175 17.8977 16.1113 17.6852 15.8988C17.4727 15.6863 17.3665 15.423 17.3665 15.1088C17.3665 14.7947 17.4727 14.5314 17.6852 14.3189C17.8977 14.1064 18.161 14.0001 18.4752 14.0001C18.7893 14.0001 19.0526 14.1064 19.2651 14.3189C19.4776 14.5314 19.5839 14.7947 19.5839 15.1088C19.5839 15.423 19.4776 15.6863 19.2651 15.8988C19.0526 16.1113 18.7893 16.2175 18.4752 16.2175ZM14.0404 20.6524C13.7262 20.6524 13.4629 20.5461 13.2504 20.3336C13.0379 20.1211 12.9317 19.8578 12.9317 19.5437C12.9317 19.2295 13.0379 18.9662 13.2504 18.7537C13.4629 18.5412 13.7262 18.435 14.0404 18.435C14.3545 18.435 14.6178 18.5412 14.8303 18.7537C15.0428 18.9662 15.1491 19.2295 15.1491 19.5437C15.1491 19.8578 15.0428 20.1211 14.8303 20.3336C14.6178 20.5461 14.3545 20.6524 14.0404 20.6524ZM9.60554 20.6524C9.2914 20.6524 9.02809 20.5461 8.81558 20.3336C8.60308 20.1211 8.49683 19.8578 8.49683 19.5437C8.49683 19.2295 8.60308 18.9662 8.81558 18.7537C9.02809 18.5412 9.2914 18.435 9.60554 18.435C9.91967 18.435 10.183 18.5412 10.3955 18.7537C10.608 18.9662 10.7142 19.2295 10.7142 19.5437C10.7142 19.8578 10.608 20.1211 10.3955 20.3336C10.183 20.5461 9.91967 20.6524 9.60554 20.6524ZM18.4752 20.6524C18.161 20.6524 17.8977 20.5461 17.6852 20.3336C17.4727 20.1211 17.3665 19.8578 17.3665 19.5437C17.3665 19.2295 17.4727 18.9662 17.6852 18.7537C17.8977 18.5412 18.161 18.435 18.4752 18.435C18.7893 18.435 19.0526 18.5412 19.2651 18.7537C19.4776 18.9662 19.5839 19.2295 19.5839 19.5437C19.5839 19.8578 19.4776 20.1211 19.2651 20.3336C19.0526 20.5461 18.7893 20.6524 18.4752 20.6524Z" fill="#7E8489"/>
</g>
</svg>
