<svg width="40" height="40" viewBox="0 0 40 40" fill="none" xmlns="http://www.w3.org/2000/svg">
<mask id="mask0_310_2" style="mask-type:alpha" maskUnits="userSpaceOnUse" x="0" y="0" width="40" height="40">
<rect x="40" width="40" height="40" transform="rotate(90 40 0)" fill="#D9D9D9"/>
</mask>
<g mask="url(#mask0_310_2)">
<path d="M15.0834 20.0002C15.0834 19.778 15.1181 19.5696 15.1876 19.3752C15.257 19.1807 15.3751 19.0002 15.5417 18.8335L23.2084 11.1669C23.514 10.8613 23.8959 10.7016 24.3542 10.6877C24.8126 10.6738 25.2084 10.8335 25.5417 11.1669C25.8473 11.4724 26.0001 11.8613 26.0001 12.3335C26.0001 12.8057 25.8473 13.1946 25.5417 13.5002L19.0834 20.0002L25.5417 26.5002C25.8473 26.8057 26.007 27.1877 26.0209 27.646C26.0348 28.1044 25.8751 28.5002 25.5417 28.8335C25.2362 29.1391 24.8473 29.2919 24.3751 29.2919C23.9028 29.2919 23.514 29.1391 23.2084 28.8335L15.5417 21.1669C15.3751 21.0002 15.257 20.8196 15.1876 20.6252C15.1181 20.4307 15.0834 20.2224 15.0834 20.0002Z" fill="#8F96A9"/>
</g>
</svg>
