<svg width="68" height="68" viewBox="0 0 68 68" fill="none" xmlns="http://www.w3.org/2000/svg">
<mask id="mask0_224_199" style="mask-type:alpha" maskUnits="userSpaceOnUse" x="0" y="0" width="68" height="68">
<rect width="68" height="68" fill="#D9D9D9"/>
</mask>
<g mask="url(#mask0_224_199)">
<path d="M31.0257 35.9845L26.9174 31.947C26.3979 31.4276 25.7486 31.1679 24.9695 31.1679C24.1903 31.1679 23.5174 31.4512 22.9507 32.0179C22.4313 32.5373 22.1716 33.1984 22.1716 34.0012C22.1716 34.804 22.4313 35.4651 22.9507 35.9845L29.0424 42.0762C29.6091 42.6429 30.2702 42.9262 31.0257 42.9262C31.7813 42.9262 32.4424 42.6429 33.0091 42.0762L45.0507 30.0345C45.6174 29.4679 45.8889 28.8067 45.8653 28.0512C45.8417 27.2956 45.5702 26.6345 45.0507 26.0679C44.4841 25.5012 43.8111 25.2061 43.032 25.1824C42.2528 25.1588 41.5799 25.4304 41.0132 25.997L31.0257 35.9845ZM23.0924 61.6262L18.9841 54.6845L11.1924 52.9845C10.484 52.8429 9.91738 52.4769 9.49238 51.8866C9.06738 51.2963 8.90211 50.647 8.99655 49.9387L9.77572 41.9345L4.46322 35.8429C3.99099 35.3234 3.75488 34.7095 3.75488 34.0012C3.75488 33.2929 3.99099 32.679 4.46322 32.1595L9.77572 26.0679L8.99655 18.0637C8.90211 17.3554 9.06738 16.7061 9.49238 16.1158C9.91738 15.5255 10.484 15.1595 11.1924 15.0179L18.9841 13.3179L23.0924 6.37619C23.4702 5.7623 23.9896 5.34911 24.6507 5.13661C25.3118 4.92411 25.9729 4.95952 26.6341 5.24286L34.0007 8.35952L41.3674 5.24286C42.0285 4.95952 42.6896 4.92411 43.3507 5.13661C44.0118 5.34911 44.5313 5.7623 44.9091 6.37619L49.0174 13.3179L56.8091 15.0179C57.5174 15.1595 58.0841 15.5255 58.5091 16.1158C58.9341 16.7061 59.0993 17.3554 59.0049 18.0637L58.2257 26.0679L63.5382 32.1595C64.0104 32.679 64.2466 33.2929 64.2466 34.0012C64.2466 34.7095 64.0104 35.3234 63.5382 35.8429L58.2257 41.9345L59.0049 49.9387C59.0993 50.647 58.9341 51.2963 58.5091 51.8866C58.0841 52.4769 57.5174 52.8429 56.8091 52.9845L49.0174 54.6845L44.9091 61.6262C44.5313 62.2401 44.0118 62.6533 43.3507 62.8658C42.6896 63.0783 42.0285 63.0429 41.3674 62.7595L34.0007 59.6429L26.6341 62.7595C25.9729 63.0429 25.3118 63.0783 24.6507 62.8658C23.9896 62.6533 23.4702 62.2401 23.0924 61.6262Z" fill="#46BA2F"/>
</g>
</svg>
