<svg width="68" height="68" viewBox="0 0 68 68" fill="none" xmlns="http://www.w3.org/2000/svg">
<mask id="mask0_609_767" style="mask-type:alpha" maskUnits="userSpaceOnUse" x="0" y="0" width="68" height="68">
<rect width="68" height="68" fill="#D9D9D9"/>
</mask>
<g mask="url(#mask0_609_767)">
<path d="M7.72081 59.5C7.20136 59.5 6.72914 59.3701 6.30414 59.1104C5.87914 58.8507 5.54858 58.5083 5.31247 58.0833C5.07636 57.6583 4.9465 57.1979 4.92289 56.7021C4.89928 56.2062 5.02914 55.7222 5.31247 55.25L31.5208 9.91667C31.8041 9.44444 32.1701 9.09028 32.6187 8.85417C33.0673 8.61806 33.5278 8.5 34 8.5C34.4722 8.5 34.9326 8.61806 35.3812 8.85417C35.8298 9.09028 36.1958 9.44444 36.4791 9.91667L62.6875 55.25C62.9708 55.7222 63.1007 56.2062 63.0771 56.7021C63.0534 57.1979 62.9236 57.6583 62.6875 58.0833C62.4514 58.5083 62.1208 58.8507 61.6958 59.1104C61.2708 59.3701 60.7986 59.5 60.2791 59.5H7.72081ZM34 51C34.8028 51 35.4757 50.7285 36.0187 50.1854C36.5618 49.6424 36.8333 48.9694 36.8333 48.1667C36.8333 47.3639 36.5618 46.691 36.0187 46.1479C35.4757 45.6049 34.8028 45.3333 34 45.3333C33.1972 45.3333 32.5243 45.6049 31.9812 46.1479C31.4382 46.691 31.1666 47.3639 31.1666 48.1667C31.1666 48.9694 31.4382 49.6424 31.9812 50.1854C32.5243 50.7285 33.1972 51 34 51ZM34 42.5C34.8028 42.5 35.4757 42.2285 36.0187 41.6854C36.5618 41.1424 36.8333 40.4694 36.8333 39.6667V31.1667C36.8333 30.3639 36.5618 29.691 36.0187 29.1479C35.4757 28.6049 34.8028 28.3333 34 28.3333C33.1972 28.3333 32.5243 28.6049 31.9812 29.1479C31.4382 29.691 31.1666 30.3639 31.1666 31.1667V39.6667C31.1666 40.4694 31.4382 41.1424 31.9812 41.6854C32.5243 42.2285 33.1972 42.5 34 42.5Z" fill="#DFB916"/>
</g>
</svg>
